<svg xmlns="http://www.w3.org/2000/svg" xmlns:xlink="http://www.w3.org/1999/xlink" width="42" height="264" viewBox="0 0 42 264"><svg width="28" height="32" viewBox="7.875 5 28 32" id="arr-black" y="0"><path fill="#2F2F2F" stroke="#2F2F2F" stroke-miterlimit="10" d="M20.409 24.5l-.867-.809L22.473 21l-2.93-2.691.867-.809 2.93 2.691.869.809-3.8 3.5z"></path></svg><svg width="28" height="32" viewBox="7.875 5 28 32" id="arr-black-reversed" y="32"><path fill="#2F2F2F" d="M23.342 17.5l.867.809L21.278 21l2.93 2.691-.867.809-2.93-2.691-.869-.809 3.8-3.5z"></path></svg><svg width="28" height="32" viewBox="7.875 5 28 32" id="arr-black~hover" y="64"><path fill="#5D5D5D" stroke="#5D5D5D" stroke-miterlimit="10" d="M20.409 24.5l-.867-.809L22.473 21l-2.93-2.691.867-.809 2.93 2.691.869.809-3.8 3.5z"></path></svg><svg width="42" height="42" viewBox="-10 -10 42 42" id="facebook" y="96"><path fill="#F16250" d="M5.009 7.602v3.824h3.097v9.282h3.854v-9.282h3.854V7.602H11.96v-1.96c0-.327.082-.606.246-.834.166-.229.336-.343.512-.343h3.097V.707h-3.097c-.637 0-1.235.13-1.795.392-.56.262-1.05.616-1.466 1.062a4.93 4.93 0 0 0-.99 1.585 5.279 5.279 0 0 0-.363 1.961v1.895H5.009z"></path></svg><svg width="42" height="42" viewBox="-10 -10 42 42" id="facebook-white" y="138"><path fill="#FFF" d="M5.009 7.602v3.824h3.097v9.282h3.854v-9.282h3.854V7.602H11.96v-1.96c0-.327.082-.606.246-.834.166-.229.336-.343.512-.343h3.097V.707h-3.097c-.637 0-1.235.13-1.795.392-.56.262-1.05.616-1.466 1.062a4.93 4.93 0 0 0-.99 1.585 5.279 5.279 0 0 0-.363 1.961v1.895H5.009z"></path></svg><svg width="42" height="42" viewBox="-10 -10 42 42" id="facebook~active" y="180"><path fill="#5D5D5D" d="M5.009 7.602v3.824h3.097v9.282h3.854v-9.282h3.854V7.602H11.96v-1.96c0-.327.082-.606.246-.834.166-.229.336-.343.512-.343h3.097V.707h-3.097c-.637 0-1.235.13-1.795.392-.56.262-1.05.616-1.466 1.062a4.93 4.93 0 0 0-.99 1.585 5.279 5.279 0 0 0-.363 1.961v1.895H5.009z"></path></svg><svg width="42" height="42" viewBox="-10 -10 42 42" id="facebook~hover" y="222"><path d="M5.009 7.602v3.824h3.097v9.282h3.854v-9.282h3.854V7.602H11.96v-1.96c0-.327.082-.606.246-.834.166-.229.336-.343.512-.343h3.097V.707h-3.097c-.637 0-1.235.13-1.795.392-.56.262-1.05.616-1.466 1.062a4.93 4.93 0 0 0-.99 1.585 5.279 5.279 0 0 0-.363 1.961v1.895H5.009z"></path></svg></svg>